Coordinates
version=1
nRows=5
nColumns=40
inDegrees=yes

Units are S.I. units (second, meters, Newtons, ...)
If the header above contains a line with 'inDegrees', this indicates whether rotational values are in degrees (yes) or radians (no).

endheader
time	pelvis_tilt	pelvis_list	pelvis_rotation	pelvis_tx	pelvis_ty	pelvis_tz	hip_flexion_r	hip_adduction_r	hip_rotation_r	knee_angle_r	knee_angle_r_beta	ankle_angle_r	subtalar_angle_r	mtp_angle_r	hip_flexion_l	hip_adduction_l	hip_rotation_l	knee_angle_l	knee_angle_l_beta	ankle_angle_l	subtalar_angle_l	mtp_angle_l	lumbar_extension	lumbar_bending	lumbar_rotation	arm_flex_r	arm_add_r	arm_rot_r	elbow_flex_r	pro_sup_r	wrist_flex_r	wrist_dev_r	arm_flex_l	arm_add_l	arm_rot_l	elbow_flex_l	pro_sup_l	wrist_flex_l	wrist_dev_l
      4.30000000	    -29.90723971	     -1.57996230	      1.23579647	     -0.31556704	      0.71417169	     -0.97535834	     29.65597378	     -7.48532969	      9.68927475	     87.54666732	      1.52797759	    -23.25293311	      0.00000000	      0.00000000	     81.88891054	     -3.01358030	     -4.37576344	     89.95995050	      1.57009733	     24.48669231	      0.00000000	      0.00000000	    -13.04769797	    -11.65490503	      9.40818408	     78.99810209	     -5.18837404	     25.33600409	     76.95530921	     86.78101785	      0.00000000	      0.00000000	     86.04667326	    -16.16396886	     37.12985891	     78.74035328	     67.22084738	      0.00000000	      0.00000000
      4.30500000	    -29.93358639	     -1.51646670	      1.03113097	     -0.31538280	      0.71524550	     -0.97496881	     29.79816346	     -7.35446185	      9.84767850	     87.62780533	      1.52939372	    -22.95277822	      0.00000000	      0.00000000	     81.76981185	     -3.21917180	     -4.47765002	     89.78466114	      1.56703795	     24.44433326	      0.00000000	      0.00000000	    -12.86680024	    -11.72722148	      9.63022247	     78.94080249	     -5.12441715	     25.28460442	     76.93762274	     87.29491340	      0.00000000	      0.00000000	     85.88806218	    -16.12774577	     36.72784010	     78.70732547	     67.02479372	      0.00000000	      0.00000000
      4.31000000	    -29.90829016	     -1.58531206	      1.07714430	     -0.31511253	      0.71638901	     -0.97514123	     29.75193779	     -7.28164484	      9.73864795	     87.52647744	      1.52762521	    -22.78172428	      0.00000000	      0.00000000	     81.64459166	     -3.19104511	     -4.40448687	     89.61491117	      1.56407526	     23.96778201	      0.00000000	      0.00000000	    -12.76322859	    -11.64986144	      9.61019752	     78.97555048	     -5.30652376	     25.81287359	     76.86482850	     86.57891296	      0.00000000	      0.00000000	     85.96053711	    -16.23627120	     37.37074730	     78.76928248	     65.26066823	      0.00000000	      0.00000000
      4.31500000	    -29.81300321	     -1.56901637	      1.09641503	     -0.31471800	      0.71760296	     -0.97521879	     29.71957372	     -7.26026420	      9.63953555	     87.52989398	      1.52768484	    -23.06868444	      0.00000000	      0.00000000	     81.36301208	     -3.11430100	     -4.37238864	     89.42379779	      1.56073970	     24.00899764	      0.00000000	      0.00000000	    -12.76036839	    -11.64938062	      9.61376659	     78.79809415	     -5.14950043	     25.32875594	     76.98923458	     87.21414007	      0.00000000	      0.00000000	     85.74802138	    -16.17208250	     37.06764173	     78.90668316	     65.04694613	      0.00000000	      0.00000000
      4.32000000	    -29.81659539	     -1.67426099	      1.06041874	     -0.31450225	      0.71873089	     -0.97513942	     29.74894415	     -7.08356333	      9.61069020	     87.49106262	      1.52700711	    -23.02110568	      0.00000000	      0.00000000	     81.26869702	     -3.22096257	     -4.32829555	     89.21332218	      1.55706621	     24.04893004	      0.00000000	      0.00000000	    -12.60651161	    -11.51117038	      9.70086755	     78.81930648	     -5.21113666	     25.59964081	     76.92486395	     86.93800177	      0.00000000	      0.00000000	     85.69293723	    -16.28014394	     37.24074585	     78.97165321	     64.62921893	      0.00000000	      0.00000000
